<?xml version="1.0" standalone="no"?>
<!DOCTYPE svg PUBLIC "-//W3C//DTD SVG 20010904//EN"
 "http://www.w3.org/TR/2001/REC-SVG-20010904/DTD/svg10.dtd">
<svg version="1.0" xmlns="http://www.w3.org/2000/svg"
 width="254.000000pt" height="254.000000pt" viewBox="0 0 254.000000 254.000000"
 preserveAspectRatio="xMidYMid meet">
<metadata>
Created by potrace 1.14, written by Peter Selinger 2001-2017
</metadata>
<g transform="translate(0.000000,254.000000) scale(0.100000,-0.100000)"
fill="#000000" stroke="none">
<path d="M1223 2529 c-48 -6 -203 -80 -211 -101 -2 -4 -8 -8 -13 -8 -6 0 -51
-24 -102 -54 -51 -30 -108 -63 -127 -74 -41 -23 -472 -271 -515 -297 -41 -24
-94 -95 -110 -147 -18 -63 -18 -1094 0 -1156 19 -62 72 -125 135 -161 30 -18
69 -40 86 -51 31 -18 271 -157 329 -190 17 -9 102 -59 190 -110 309 -180 343
-192 446 -166 39 11 222 111 554 306 44 25 153 89 243 140 167 96 211 133 249
209 17 33 18 77 19 587 1 619 2 612 -70 690 -39 41 -213 149 -416 256 -47 25
-107 61 -135 79 -27 19 -59 39 -70 44 -11 6 -71 39 -133 75 -199 115 -210 120
-254 128 -24 4 -66 5 -95 1z"/>
</g>
</svg>
