<svg width="0" height="0" style="visibility: hidden; position: absolute;" aria-hidden="true">
    <symbol id="barcode" xmlns="http://www.w3.org/2000/svg" viewBox="0 0 512 512">
        <path fill="currentColor" d="M40 32C53.25 32 64 42.75 64 56V456C64 469.3 53.25 480 40 480H24C10.75 480 0 469.3 0 456V56C0 42.75 10.75 32 24 32H40zM128 48V464C128 472.8 120.8 480 112 480C103.2 480 96 472.8 96 464V48C96 39.16 103.2 32 112 32C120.8 32 128 39.16 128 48zM200 32C213.3 32 224 42.75 224 56V456C224 469.3 213.3 480 200 480H184C170.7 480 160 469.3 160 456V56C160 42.75 170.7 32 184 32H200zM296 32C309.3 32 320 42.75 320 56V456C320 469.3 309.3 480 296 480H280C266.7 480 256 469.3 256 456V56C256 42.75 266.7 32 280 32H296zM448 56C448 42.75 458.7 32 472 32H488C501.3 32 512 42.75 512 56V456C512 469.3 501.3 480 488 480H472C458.7 480 448 469.3 448 456V56zM384 48C384 39.16 391.2 32 400 32C408.8 32 416 39.16 416 48V464C416 472.8 408.8 480 400 480C391.2 480 384 472.8 384 464V48z"/>
    </symbol>
    <symbol id="bgg" xmlns="http://www.w3.org/2000/svg" viewBox="0 0 47 18">
        <path fill="currentColor" d="M8.9676478,10.747464 C8.9676478,10.615984 8.88855,10.4584106 8.7033081,10.4584106 L4.5767,10.4584106 L4.5767,14.3721573 L8.7033081,14.3721573 C8.88855,14.3721573 8.9676478,14.2406773 8.9676478,14.1094506 L8.9676478,10.7474640 zM8.9676478,3.8134773 C8.9676478,3.6819973 8.88855,3.5246773 8.7033081,3.5246773 L4.5767,3.5246773 L4.5767,7.2018106 L8.7033081,7.2018106 C8.88855,7.2018106 8.9676478,7.0703306 8.9676478,6.9125040 L8.9676478,3.8134773 zM-0,17.7338906 L-0,0.0053706 L11.0045434,0.0053706 C12.45968756,0.0053706 13.3853868,0.924464 13.3853868,2.2374906 L13.3853868,6.177584 C13.3853868,7.3854773 12.5918574,8.5411840 10.9519816,8.9353706 C12.5918574,9.3290506 13.5178118,10.4323173 13.5178118,11.6143706 L13.5178118,15.4751706 C13.5178118,16.8669840 12.5918574,17.7338906 11.13696845,17.7338906 L-0,17.7338906 zM25.0797395,6.8552 L30.0871397,6.8552 L30.0871397,15.7061600 C30.0871397,16.8618666 29.18823166,17.728520 28.0504992,17.728520 L19.1091323,17.728520 C17.9716551,17.728520 17.0457007,16.8618666 17.0457007,15.7061600 L17.0457007,1.9960133 C17.0457007,0.9190933 17.9716551,0 19.1091323,0 L30.0871397,0 L30.0871397,3.8083600 L21.8864852,3.8083600 C21.7543154,3.8083600 21.6221455,3.9395866 21.6221455,4.0974133 L21.6221455,13.6052666 C21.6221455,13.7625866 21.7543154,13.8677200 21.8864852,13.8677200 L25.5903029,13.8677200 C25.7752897,13.8677200 25.88117863,13.7625866 25.88117863,13.6052666 L25.88117863,10.6108666 L23.47405444,10.6108666 L25.0797395,6.8552 zM41.6490673,6.8552 L46.6567227,6.8552 L46.6567227,15.7061600 C46.6567227,16.8618666 45.7575595,17.728520 44.6200823,17.728520 L35.6787153,17.728520 C34.540983,17.728520 33.61528374,16.8618666 33.61528374,15.7061600 L33.61528374,1.9960133 C33.61528374,0.9190933 34.540983,0 35.6787153,0 L46.6567227,0 L46.6567227,3.8083600 L38.4560683,3.8083600 C38.3238984,3.8083600 38.19147344,3.9395866 38.19147344,4.0974133 L38.19147344,13.6052666 C38.19147344,13.7625866 38.3238984,13.8677200 38.4560683,13.8677200 L42.1596308,13.8677200 C42.3448727,13.8677200 42.4507617,13.7625866 42.4507617,13.6052666 L42.4507617,10.6108666 L40.0433823,10.6108666 L41.6490673,6.8552 z"/>
    </symbol>
    <symbol id="building" xmlns="http://www.w3.org/2000/svg" viewBox="0 0 384 512">
        <path fill="currentColor" d="M336 0C362.5 0 384 21.49 384 48V464C384 490.5 362.5 512 336 512H240V432C240 405.5 218.5 384 192 384C165.5 384 144 405.5 144 432V512H48C21.49 512 0 490.5 0 464V48C0 21.49 21.49 0 48 0H336zM64 272C64 280.8 71.16 288 80 288H112C120.8 288 128 280.8 128 272V240C128 231.2 120.8 224 112 224H80C71.16 224 64 231.2 64 240V272zM176 224C167.2 224 160 231.2 160 240V272C160 280.8 167.2 288 176 288H208C216.8 288 224 280.8 224 272V240C224 231.2 216.8 224 208 224H176zM256 272C256 280.8 263.2 288 272 288H304C312.8 288 320 280.8 320 272V240C320 231.2 312.8 224 304 224H272C263.2 224 256 231.2 256 240V272zM80 96C71.16 96 64 103.2 64 112V144C64 152.8 71.16 160 80 160H112C120.8 160 128 152.8 128 144V112C128 103.2 120.8 96 112 96H80zM160 144C160 152.8 167.2 160 176 160H208C216.8 160 224 152.8 224 144V112C224 103.2 216.8 96 208 96H176C167.2 96 160 103.2 160 112V144zM272 96C263.2 96 256 103.2 256 112V144C256 152.8 263.2 160 272 160H304C312.8 160 320 152.8 320 144V112C320 103.2 312.8 96 304 96H272z"/>
    </symbol>
    <symbol id="calendar-days" xmlns="http://www.w3.org/2000/svg" viewBox="0 0 448 512">
        <path fill="currentColor" d="M160 32V64H288V32C288 14.33 302.3 0 320 0C337.7 0 352 14.33 352 32V64H400C426.5 64 448 85.49 448 112V160H0V112C0 85.49 21.49 64 48 64H96V32C96 14.33 110.3 0 128 0C145.7 0 160 14.33 160 32zM0 192H448V464C448 490.5 426.5 512 400 512H48C21.49 512 0 490.5 0 464V192zM64 304C64 312.8 71.16 320 80 320H112C120.8 320 128 312.8 128 304V272C128 263.2 120.8 256 112 256H80C71.16 256 64 263.2 64 272V304zM192 304C192 312.8 199.2 320 208 320H240C248.8 320 256 312.8 256 304V272C256 263.2 248.8 256 240 256H208C199.2 256 192 263.2 192 272V304zM336 256C327.2 256 320 263.2 320 272V304C320 312.8 327.2 320 336 320H368C376.8 320 384 312.8 384 304V272C384 263.2 376.8 256 368 256H336zM64 432C64 440.8 71.16 448 80 448H112C120.8 448 128 440.8 128 432V400C128 391.2 120.8 384 112 384H80C71.16 384 64 391.2 64 400V432zM208 384C199.2 384 192 391.2 192 400V432C192 440.8 199.2 448 208 448H240C248.8 448 256 440.8 256 432V400C256 391.2 248.8 384 240 384H208zM320 432C320 440.8 327.2 448 336 448H368C376.8 448 384 440.8 384 432V400C384 391.2 376.8 384 368 384H336C327.2 384 320 391.2 320 400V432z"/>
    </symbol>
    <symbol id="cart-shopping" xmlns="http://www.w3.org/2000/svg" viewBox="0 0 576 512">
        <path fill="currentColor" d="M96 0C107.5 0 117.4 8.19 119.6 19.51L121.1 32H541.8C562.1 32 578.3 52.25 572.6 72.66L518.6 264.7C514.7 278.5 502.1 288 487.8 288H170.7L179.9 336H488C501.3 336 512 346.7 512 360C512 373.3 501.3 384 488 384H159.1C148.5 384 138.6 375.8 136.4 364.5L76.14 48H24C10.75 48 0 37.25 0 24C0 10.75 10.75 0 24 0H96zM128 464C128 437.5 149.5 416 176 416C202.5 416 224 437.5 224 464C224 490.5 202.5 512 176 512C149.5 512 128 490.5 128 464zM512 464C512 490.5 490.5 512 464 512C437.5 512 416 490.5 416 464C416 437.5 437.5 416 464 416C490.5 416 512 437.5 512 464z"/>
    </symbol>
    <symbol id="chevron-down" xmlns="http://www.w3.org/2000/svg" viewBox="0 0 448 512">
        <path fill="currentColor" d="M224 416c-8.188 0-16.38-3.125-22.62-9.375l-192-192c-12.5-12.5-12.5-32.75 0-45.25s32.75-12.5 45.25 0L224 338.8l169.4-169.4c12.5-12.5 32.75-12.5 45.25 0s12.5 32.75 0 45.25l-192 192C240.4 412.9 232.2 416 224 416z"/>
    </symbol>
    <symbol id="chevron-left" xmlns="http://www.w3.org/2000/svg" viewBox="0 0 320 512">
        <path fill="currentColor" d="M224 480c-8.188 0-16.38-3.125-22.62-9.375l-192-192c-12.5-12.5-12.5-32.75 0-45.25l192-192c12.5-12.5 32.75-12.5 45.25 0s12.5 32.75 0 45.25L77.25 256l169.4 169.4c12.5 12.5 12.5 32.75 0 45.25C240.4 476.9 232.2 480 224 480z"/>
    </symbol>
    <symbol id="chevron-right" xmlns="http://www.w3.org/2000/svg" viewBox="0 0 320 512">
        <path fill="currentColor" d="M96 480c-8.188 0-16.38-3.125-22.62-9.375c-12.5-12.5-12.5-32.75 0-45.25L242.8 256L73.38 86.63c-12.5-12.5-12.5-32.75 0-45.25s32.75-12.5 45.25 0l192 192c12.5 12.5 12.5 32.75 0 45.25l-192 192C112.4 476.9 104.2 480 96 480z"/>
    </symbol>
    <symbol id="chevron-up" xmlns="http://www.w3.org/2000/svg" viewBox="0 0 448 512">
        <path fill="currentColor" d="M416 352c-8.188 0-16.38-3.125-22.62-9.375L224 173.3l-169.4 169.4c-12.5 12.5-32.75 12.5-45.25 0s-12.5-32.75 0-45.25l192-192c12.5-12.5 32.75-12.5 45.25 0l192 192c12.5 12.5 12.5 32.75 0 45.25C432.4 348.9 424.2 352 416 352z"/>
    </symbol>
    <symbol id="circle-arrow-left" xmlns="http://www.w3.org/2000/svg" viewBox="0 0 512 512">
        <path fill="currentColor" d="M256 0C114.6 0 0 114.6 0 256c0 141.4 114.6 256 256 256s256-114.6 256-256C512 114.6 397.4 0 256 0zM384 288H205.3l49.38 49.38c12.5 12.5 12.5 32.75 0 45.25s-32.75 12.5-45.25 0L105.4 278.6C97.4 270.7 96 260.9 96 256c0-4.883 1.391-14.66 9.398-22.65l103.1-103.1c12.5-12.5 32.75-12.5 45.25 0s12.5 32.75 0 45.25L205.3 224H384c17.69 0 32 14.33 32 32S401.7 288 384 288z"/>
    </symbol>
    <symbol id="circle-arrow-right" xmlns="http://www.w3.org/2000/svg" viewBox="0 0 512 512">
        <path fill="currentColor" d="M256 0C114.6 0 0 114.6 0 256c0 141.4 114.6 256 256 256s256-114.6 256-256C512 114.6 397.4 0 256 0zM406.6 278.6l-103.1 103.1c-12.5 12.5-32.75 12.5-45.25 0s-12.5-32.75 0-45.25L306.8 288H128C110.3 288 96 273.7 96 256s14.31-32 32-32h178.8l-49.38-49.38c-12.5-12.5-12.5-32.75 0-45.25s32.75-12.5 45.25 0l103.1 103.1C414.6 241.3 416 251.1 416 256C416 260.9 414.6 270.7 406.6 278.6z"/>
    </symbol>
    <symbol id="circle-check" xmlns="http://www.w3.org/2000/svg" viewBox="0 0 512 512">
        <path fill="currentColor" d="M0 256C0 114.6 114.6 0 256 0C397.4 0 512 114.6 512 256C512 397.4 397.4 512 256 512C114.6 512 0 397.4 0 256zM371.8 211.8C382.7 200.9 382.7 183.1 371.8 172.2C360.9 161.3 343.1 161.3 332.2 172.2L224 280.4L179.8 236.2C168.9 225.3 151.1 225.3 140.2 236.2C129.3 247.1 129.3 264.9 140.2 275.8L204.2 339.8C215.1 350.7 232.9 350.7 243.8 339.8L371.8 211.8z"/>
    </symbol>
    <symbol id="circle-xmark" xmlns="http://www.w3.org/2000/svg" viewBox="0 0 512 512">
        <path fill="currentColor" d="M0 256C0 114.6 114.6 0 256 0C397.4 0 512 114.6 512 256C512 397.4 397.4 512 256 512C114.6 512 0 397.4 0 256zM175 208.1L222.1 255.1L175 303C165.7 312.4 165.7 327.6 175 336.1C184.4 346.3 199.6 346.3 208.1 336.1L255.1 289.9L303 336.1C312.4 346.3 327.6 346.3 336.1 336.1C346.3 327.6 346.3 312.4 336.1 303L289.9 255.1L336.1 208.1C346.3 199.6 346.3 184.4 336.1 175C327.6 165.7 312.4 165.7 303 175L255.1 222.1L208.1 175C199.6 165.7 184.4 165.7 175 175C165.7 184.4 165.7 199.6 175 208.1V208.1z"/>
    </symbol>
    <symbol id="clock-rotate-left" xmlns="http://www.w3.org/2000/svg" viewBox="0 0 512 512">
        <path fill="currentColor" d="M256 0C397.4 0 512 114.6 512 256C512 397.4 397.4 512 256 512C201.7 512 151.2 495 109.7 466.1C95.2 455.1 91.64 436 101.8 421.5C111.9 407 131.8 403.5 146.3 413.6C177.4 435.3 215.2 448 256 448C362 448 448 362 448 256C448 149.1 362 64 256 64C202.1 64 155 85.46 120.2 120.2L151 151C166.1 166.1 155.4 192 134.1 192H24C10.75 192 0 181.3 0 168V57.94C0 36.56 25.85 25.85 40.97 40.97L74.98 74.98C121.3 28.69 185.3 0 255.1 0L256 0zM256 128C269.3 128 280 138.7 280 152V246.1L344.1 311C354.3 320.4 354.3 335.6 344.1 344.1C335.6 354.3 320.4 354.3 311 344.1L239 272.1C234.5 268.5 232 262.4 232 256V152C232 138.7 242.7 128 256 128V128z"/>
    </symbol>
    <symbol id="clock" xmlns="http://www.w3.org/2000/svg" viewBox="0 0 512 512">
        <path fill="currentColor" d="M232 120C232 106.7 242.7 96 256 96C269.3 96 280 106.7 280 120V243.2L365.3 300C376.3 307.4 379.3 322.3 371.1 333.3C364.6 344.3 349.7 347.3 338.7 339.1L242.7 275.1C236 271.5 232 264 232 255.1L232 120zM256 0C397.4 0 512 114.6 512 256C512 397.4 397.4 512 256 512C114.6 512 0 397.4 0 256C0 114.6 114.6 0 256 0zM48 256C48 370.9 141.1 464 256 464C370.9 464 464 370.9 464 256C464 141.1 370.9 48 256 48C141.1 48 48 141.1 48 256z"/>
    </symbol>
    <symbol id="comments" xmlns="http://www.w3.org/2000/svg" viewBox="0 0 640 512">
        <path fill="currentColor" d="M416 176C416 78.8 322.9 0 208 0S0 78.8 0 176c0 39.57 15.62 75.96 41.67 105.4c-16.39 32.76-39.23 57.32-39.59 57.68c-2.1 2.205-2.67 5.475-1.441 8.354C1.9 350.3 4.602 352 7.66 352c38.35 0 70.76-11.12 95.74-24.04C134.2 343.1 169.8 352 208 352C322.9 352 416 273.2 416 176zM599.6 443.7C624.8 413.9 640 376.6 640 336C640 238.8 554 160 448 160c-.3145 0-.6191 .041-.9336 .043C447.5 165.3 448 170.6 448 176c0 98.62-79.68 181.2-186.1 202.5C282.7 455.1 357.1 512 448 512c33.69 0 65.32-8.008 92.85-21.98C565.2 502 596.1 512 632.3 512c3.059 0 5.76-1.725 7.02-4.605c1.229-2.879 .6582-6.148-1.441-8.354C637.6 498.7 615.9 475.3 599.6 443.7z"/>
    </symbol>
    <symbol id="credit-card" xmlns="http://www.w3.org/2000/svg" viewBox="0 0 576 512">
        <path fill="currentColor" d="M168 336C181.3 336 192 346.7 192 360C192 373.3 181.3 384 168 384H120C106.7 384 96 373.3 96 360C96 346.7 106.7 336 120 336H168zM360 336C373.3 336 384 346.7 384 360C384 373.3 373.3 384 360 384H248C234.7 384 224 373.3 224 360C224 346.7 234.7 336 248 336H360zM512 32C547.3 32 576 60.65 576 96V416C576 451.3 547.3 480 512 480H64C28.65 480 0 451.3 0 416V96C0 60.65 28.65 32 64 32H512zM512 80H64C55.16 80 48 87.16 48 96V128H528V96C528 87.16 520.8 80 512 80zM528 224H48V416C48 424.8 55.16 432 64 432H512C520.8 432 528 424.8 528 416V224z"/>
    </symbol>
    <symbol id="envelope" xmlns="http://www.w3.org/2000/svg" viewBox="0 0 512 512">
        <path fill="currentColor" d="M0 128C0 92.65 28.65 64 64 64H448C483.3 64 512 92.65 512 128V384C512 419.3 483.3 448 448 448H64C28.65 448 0 419.3 0 384V128zM48 128V150.1L220.5 291.7C241.1 308.7 270.9 308.7 291.5 291.7L464 150.1V127.1C464 119.2 456.8 111.1 448 111.1H64C55.16 111.1 48 119.2 48 127.1L48 128zM48 212.2V384C48 392.8 55.16 400 64 400H448C456.8 400 464 392.8 464 384V212.2L322 328.8C283.6 360.3 228.4 360.3 189.1 328.8L48 212.2z"/>
    </symbol>
    <symbol id="eye" xmlns="http://www.w3.org/2000/svg" viewBox="0 0 576 512">
        <path fill="currentColor" d="M279.6 160.4C282.4 160.1 285.2 160 288 160C341 160 384 202.1 384 256C384 309 341 352 288 352C234.1 352 192 309 192 256C192 253.2 192.1 250.4 192.4 247.6C201.7 252.1 212.5 256 224 256C259.3 256 288 227.3 288 192C288 180.5 284.1 169.7 279.6 160.4zM480.6 112.6C527.4 156 558.7 207.1 573.5 243.7C576.8 251.6 576.8 260.4 573.5 268.3C558.7 304 527.4 355.1 480.6 399.4C433.5 443.2 368.8 480 288 480C207.2 480 142.5 443.2 95.42 399.4C48.62 355.1 17.34 304 2.461 268.3C-.8205 260.4-.8205 251.6 2.461 243.7C17.34 207.1 48.62 156 95.42 112.6C142.5 68.84 207.2 32 288 32C368.8 32 433.5 68.84 480.6 112.6V112.6zM288 112C208.5 112 144 176.5 144 256C144 335.5 208.5 400 288 400C367.5 400 432 335.5 432 256C432 176.5 367.5 112 288 112z"/>
    </symbol>
    <symbol id="facebook" xmlns="http://www.w3.org/2000/svg" viewBox="0 0 320 512">
        <path fill="currentColor" d="M279.14 288l14.22-92.66h-88.91v-60.13c0-25.35 12.42-50.06 52.24-50.06h40.42V6.26S260.43 0 225.36 0c-73.22 0-121.08 44.38-121.08 124.72v70.62H22.89V288h81.39v224h100.17V288z"/>
    </symbol>
    <symbol id="file-lines" xmlns="http://www.w3.org/2000/svg" viewBox="0 0 384 512">
        <path fill="currentColor" d="M365.3 93.38l-74.63-74.64C278.6 6.742 262.3 0 245.4 0L64-.0001c-35.35 0-64 28.65-64 64l.0065 384c0 35.34 28.65 64 64 64H320c35.2 0 64-28.8 64-64V138.6C384 121.7 377.3 105.4 365.3 93.38zM336 448c0 8.836-7.164 16-16 16H64.02c-8.838 0-16-7.164-16-16L48 64.13c0-8.836 7.164-16 16-16h160L224 128c0 17.67 14.33 32 32 32h79.1V448zM96 280C96 293.3 106.8 304 120 304h144C277.3 304 288 293.3 288 280S277.3 256 264 256h-144C106.8 256 96 266.8 96 280zM264 352h-144C106.8 352 96 362.8 96 376s10.75 24 24 24h144c13.25 0 24-10.75 24-24S277.3 352 264 352z"/>
    </symbol>
    <symbol id="file-signature" xmlns="http://www.w3.org/2000/svg" viewBox="0 0 576 512">
        <path fill="currentColor" d="M292.7 342.3C289.7 345.3 288 349.4 288 353.7V416h62.34c4.264 0 8.35-1.703 11.35-4.727l156.9-158l-67.88-67.88L292.7 342.3zM568.5 167.4L536.6 135.5c-9.875-10-26-10-36 0l-27.25 27.25l67.88 67.88l27.25-27.25C578.5 193.4 578.5 177.3 568.5 167.4zM256 0v128h128L256 0zM256 448c-16.07-.2852-30.62-9.359-37.88-23.88c-2.875-5.875-8-6.5-10.12-6.5s-7.25 .625-10 6.125l-7.749 15.38C187.6 444.6 181.1 448 176 448H174.9c-6.5-.5-12-4.75-14-11L144 386.6L133.4 418.5C127.5 436.1 111 448 92.45 448H80C71.13 448 64 440.9 64 432S71.13 416 80 416h12.4c4.875 0 9.102-3.125 10.6-7.625l18.25-54.63C124.5 343.9 133.6 337.3 144 337.3s19.5 6.625 22.75 16.5l13.88 41.63c19.75-16.25 54.13-9.75 66 14.12C248.5 413.2 252.2 415.6 256 415.9V347c0-8.523 3.402-16.7 9.451-22.71L384 206.5V160H256c-17.67 0-32-14.33-32-32L224 0H48C21.49 0 0 21.49 0 48v416C0 490.5 21.49 512 48 512h288c26.51 0 48-21.49 48-48V448H256z"/>
    </symbol>
    <symbol id="file" xmlns="http://www.w3.org/2000/svg" viewBox="0 0 384 512">
        <path fill="currentColor" d="M0 64C0 28.65 28.65 0 64 0H229.5C246.5 0 262.7 6.743 274.7 18.75L365.3 109.3C377.3 121.3 384 137.5 384 154.5V448C384 483.3 355.3 512 320 512H64C28.65 512 0 483.3 0 448V64zM336 448V160H256C238.3 160 224 145.7 224 128V48H64C55.16 48 48 55.16 48 64V448C48 456.8 55.16 464 64 464H320C328.8 464 336 456.8 336 448z"/>
    </symbol>
    <symbol id="for-authors" xmlns="http://www.w3.org/2000/svg" viewBox="0 0 48 54">
        <path fill="currentColor" d="M30.8,31.7c0,0-2,0-5.6-3.6c-3.6-3.6-3.6-5.6-3.6-5.6l3.8-2.5c-2.4-1.1-4.5-1.3-5.6-0.1 c-1.9,1.9-0.3,6.4,3.4,10.2c3.8,3.8,8.3,5.3,10.2,3.4c1.1-1.1,1-3.3-0.1-5.6L30.8,31.7z M21.9,29.4l-9.9,12l12-9.8 c-0.4-0.3-0.7-0.7-1.1-1C22.5,30.1,22.2,29.8,21.9,29.4z M38.2,15.2c-1.8-1.8-3.9-2.5-4.8-1.7c-0.9,0.9-0.1,3,1.7,4.8 c1.8,1.8,3.9,2.5,4.8,1.7C40.7,19.1,40,17,38.2,15.2z M32.8,16l-10.1,6.8c0,0-0.1,1.8,3,4.9c3.1,3.1,4.9,3,4.9,3l6.8-10.1 c-0.9-0.4-1.8-1.1-2.6-1.9C33.9,17.8,33.3,16.8,32.8,16z"/>
    </symbol>
    <symbol id="gear" xmlns="http://www.w3.org/2000/svg" viewBox="0 0 512 512">
        <path fill="currentColor" d="M495.9 166.6C499.2 175.2 496.4 184.9 489.6 191.2L446.3 230.6C447.4 238.9 448 247.4 448 256C448 264.6 447.4 273.1 446.3 281.4L489.6 320.8C496.4 327.1 499.2 336.8 495.9 345.4C491.5 357.3 486.2 368.8 480.2 379.7L475.5 387.8C468.9 398.8 461.5 409.2 453.4 419.1C447.4 426.2 437.7 428.7 428.9 425.9L373.2 408.1C359.8 418.4 344.1 427 329.2 433.6L316.7 490.7C314.7 499.7 307.7 506.1 298.5 508.5C284.7 510.8 270.5 512 255.1 512C241.5 512 227.3 510.8 213.5 508.5C204.3 506.1 197.3 499.7 195.3 490.7L182.8 433.6C167 427 152.2 418.4 138.8 408.1L83.14 425.9C74.3 428.7 64.55 426.2 58.63 419.1C50.52 409.2 43.12 398.8 36.52 387.8L31.84 379.7C25.77 368.8 20.49 357.3 16.06 345.4C12.82 336.8 15.55 327.1 22.41 320.8L65.67 281.4C64.57 273.1 64 264.6 64 256C64 247.4 64.57 238.9 65.67 230.6L22.41 191.2C15.55 184.9 12.82 175.3 16.06 166.6C20.49 154.7 25.78 143.2 31.84 132.3L36.51 124.2C43.12 113.2 50.52 102.8 58.63 92.95C64.55 85.8 74.3 83.32 83.14 86.14L138.8 103.9C152.2 93.56 167 84.96 182.8 78.43L195.3 21.33C197.3 12.25 204.3 5.04 213.5 3.51C227.3 1.201 241.5 0 256 0C270.5 0 284.7 1.201 298.5 3.51C307.7 5.04 314.7 12.25 316.7 21.33L329.2 78.43C344.1 84.96 359.8 93.56 373.2 103.9L428.9 86.14C437.7 83.32 447.4 85.8 453.4 92.95C461.5 102.8 468.9 113.2 475.5 124.2L480.2 132.3C486.2 143.2 491.5 154.7 495.9 166.6V166.6zM256 336C300.2 336 336 300.2 336 255.1C336 211.8 300.2 175.1 256 175.1C211.8 175.1 176 211.8 176 255.1C176 300.2 211.8 336 256 336z"/>
    </symbol>
    <symbol id="google-plus" xmlns="http://www.w3.org/2000/svg" viewBox="0 0 640 512">
        <path fill="currentColor" d="M386.061 228.496c1.834 9.692 3.143 19.384 3.143 31.956C389.204 370.205 315.599 448 204.8 448c-106.084 0-192-85.915-192-192s85.916-192 192-192c51.864 0 95.083 18.859 128.611 50.292l-52.126 50.03c-14.145-13.621-39.028-29.599-76.485-29.599-65.484 0-118.92 54.221-118.92 121.277 0 67.056 53.436 121.277 118.92 121.277 75.961 0 104.513-54.745 108.965-82.773H204.8v-66.009h181.261zm185.406 6.437V179.2h-56.001v55.733h-55.733v56.001h55.733v55.733h56.001v-55.733H627.2v-56.001h-55.733z"/>
    </symbol>
    <symbol id="heart-o" xmlns="http://www.w3.org/2000/svg" viewBox="0 0 512 512">
        <path fill="currentColor" d="M244 84L255.1 96L267.1 84.02C300.6 51.37 347 36.51 392.6 44.1C461.5 55.58 512 115.2 512 185.1V190.9C512 232.4 494.8 272.1 464.4 300.4L283.7 469.1C276.2 476.1 266.3 480 256 480C245.7 480 235.8 476.1 228.3 469.1L47.59 300.4C17.23 272.1 0 232.4 0 190.9V185.1C0 115.2 50.52 55.58 119.4 44.1C164.1 36.51 211.4 51.37 244 84C243.1 84 244 84.01 244 84L244 84zM255.1 163.9L210.1 117.1C188.4 96.28 157.6 86.4 127.3 91.44C81.55 99.07 48 138.7 48 185.1V190.9C48 219.1 59.71 246.1 80.34 265.3L256 429.3L431.7 265.3C452.3 246.1 464 219.1 464 190.9V185.1C464 138.7 430.4 99.07 384.7 91.44C354.4 86.4 323.6 96.28 301.9 117.1L255.1 163.9z"/>
    </symbol>
    <symbol id="heart" xmlns="http://www.w3.org/2000/svg" viewBox="0 0 512 512">
        <path fill="currentColor" d="M0 190.9V185.1C0 115.2 50.52 55.58 119.4 44.1C164.1 36.51 211.4 51.37 244 84.02L256 96L267.1 84.02C300.6 51.37 347 36.51 392.6 44.1C461.5 55.58 512 115.2 512 185.1V190.9C512 232.4 494.8 272.1 464.4 300.4L283.7 469.1C276.2 476.1 266.3 480 256 480C245.7 480 235.8 476.1 228.3 469.1L47.59 300.4C17.23 272.1 .0003 232.4 .0003 190.9L0 190.9z"/>
    </symbol>
    <symbol id="house" xmlns="http://www.w3.org/2000/svg" viewBox="0 0 576 512">
        <path fill="currentColor" d="M575.8 255.5C575.8 273.5 560.8 287.6 543.8 287.6H511.8L512.5 447.7C512.5 450.5 512.3 453.1 512 455.8V472C512 494.1 494.1 512 472 512H456C454.9 512 453.8 511.1 452.7 511.9C451.3 511.1 449.9 512 448.5 512H392C369.9 512 352 494.1 352 472V384C352 366.3 337.7 352 320 352H256C238.3 352 224 366.3 224 384V472C224 494.1 206.1 512 184 512H128.1C126.6 512 125.1 511.9 123.6 511.8C122.4 511.9 121.2 512 120 512H104C81.91 512 64 494.1 64 472V360C64 359.1 64.03 358.1 64.09 357.2V287.6H32.05C14.02 287.6 0 273.5 0 255.5C0 246.5 3.004 238.5 10.01 231.5L266.4 8.016C273.4 1.002 281.4 0 288.4 0C295.4 0 303.4 2.004 309.5 7.014L564.8 231.5C572.8 238.5 576.9 246.5 575.8 255.5L575.8 255.5z"/>
    </symbol>
    <symbol id="instagram" xmlns="http://www.w3.org/2000/svg" viewBox="0 0 448 512">
        <path fill="currentColor" d="M224.1 141c-63.6 0-114.9 51.3-114.9 114.9s51.3 114.9 114.9 114.9S339 319.5 339 255.9 287.7 141 224.1 141zm0 189.6c-41.1 0-74.7-33.5-74.7-74.7s33.5-74.7 74.7-74.7 74.7 33.5 74.7 74.7-33.6 74.7-74.7 74.7zm146.4-194.3c0 14.9-12 26.8-26.8 26.8-14.9 0-26.8-12-26.8-26.8s12-26.8 26.8-26.8 26.8 12 26.8 26.8zm76.1 27.2c-1.7-35.9-9.9-67.7-36.2-93.9-26.2-26.2-58-34.4-93.9-36.2-37-2.1-147.9-2.1-184.9 0-35.8 1.7-67.6 9.9-93.9 36.1s-34.4 58-36.2 93.9c-2.1 37-2.1 147.9 0 184.9 1.7 35.9 9.9 67.7 36.2 93.9s58 34.4 93.9 36.2c37 2.1 147.9 2.1 184.9 0 35.9-1.7 67.7-9.9 93.9-36.2 26.2-26.2 34.4-58 36.2-93.9 2.1-37 2.1-147.8 0-184.8zM398.8 388c-7.8 19.6-22.9 34.7-42.6 42.6-29.5 11.7-99.5 9-132.1 9s-102.7 2.6-132.1-9c-19.6-7.8-34.7-22.9-42.6-42.6-11.7-29.5-9-99.5-9-132.1s-2.6-102.7 9-132.1c7.8-19.6 22.9-34.7 42.6-42.6 29.5-11.7 99.5-9 132.1-9s102.7-2.6 132.1 9c19.6 7.8 34.7 22.9 42.6 42.6 11.7 29.5 9 99.5 9 132.1s2.7 102.7-9 132.1z"/>
    </symbol>
    <symbol id="language" xmlns="http://www.w3.org/2000/svg" viewBox="0 0 640 512">
        <path fill="currentColor" d="M448 164C459 164 468 172.1 468 184V188H528C539 188 548 196.1 548 208C548 219 539 228 528 228H526L524.4 232.5C515.5 256.1 501.9 279.1 484.7 297.9C485.6 298.4 486.5 298.1 487.4 299.5L506.3 310.8C515.8 316.5 518.8 328.8 513.1 338.3C507.5 347.8 495.2 350.8 485.7 345.1L466.8 333.8C462.4 331.1 457.1 328.3 453.7 325.3C443.2 332.8 431.8 339.3 419.8 344.7L416.1 346.3C406 350.8 394.2 346.2 389.7 336.1C385.2 326 389.8 314.2 399.9 309.7L403.5 308.1C409.9 305.2 416.1 301.1 422 298.3L409.9 286.1C402 278.3 402 265.7 409.9 257.9C417.7 250 430.3 250 438.1 257.9L452.7 272.4L453.3 272.1C465.7 259.9 475.8 244.7 483.1 227.1H376C364.1 227.1 356 219 356 207.1C356 196.1 364.1 187.1 376 187.1H428V183.1C428 172.1 436.1 163.1 448 163.1L448 164zM160 233.2L179 276H140.1L160 233.2zM0 128C0 92.65 28.65 64 64 64H576C611.3 64 640 92.65 640 128V384C640 419.3 611.3 448 576 448H64C28.65 448 0 419.3 0 384V128zM320 384H576V128H320V384zM178.3 175.9C175.1 168.7 167.9 164 160 164C152.1 164 144.9 168.7 141.7 175.9L77.72 319.9C73.24 329.1 77.78 341.8 87.88 346.3C97.97 350.8 109.8 346.2 114.3 336.1L123.2 315.1H196.8L205.7 336.1C210.2 346.2 222 350.8 232.1 346.3C242.2 341.8 246.8 329.1 242.3 319.9L178.3 175.9z"/>
    </symbol>
    <symbol id="link" xmlns="http://www.w3.org/2000/svg" viewBox="0 0 640 512">
        <path fill="currentColor" d="M172.5 131.1C228.1 75.51 320.5 75.51 376.1 131.1C426.1 181.1 433.5 260.8 392.4 318.3L391.3 319.9C381 334.2 361 337.6 346.7 327.3C332.3 317 328.9 297 339.2 282.7L340.3 281.1C363.2 249 359.6 205.1 331.7 177.2C300.3 145.8 249.2 145.8 217.7 177.2L105.5 289.5C73.99 320.1 73.99 372 105.5 403.5C133.3 431.4 177.3 435 209.3 412.1L210.9 410.1C225.3 400.7 245.3 404 255.5 418.4C265.8 432.8 262.5 452.8 248.1 463.1L246.5 464.2C188.1 505.3 110.2 498.7 60.21 448.8C3.741 392.3 3.741 300.7 60.21 244.3L172.5 131.1zM467.5 380C411 436.5 319.5 436.5 263 380C213 330 206.5 251.2 247.6 193.7L248.7 192.1C258.1 177.8 278.1 174.4 293.3 184.7C307.7 194.1 311.1 214.1 300.8 229.3L299.7 230.9C276.8 262.1 280.4 306.9 308.3 334.8C339.7 366.2 390.8 366.2 422.3 334.8L534.5 222.5C566 191 566 139.1 534.5 108.5C506.7 80.63 462.7 76.99 430.7 99.9L429.1 101C414.7 111.3 394.7 107.1 384.5 93.58C374.2 79.2 377.5 59.21 391.9 48.94L393.5 47.82C451 6.731 529.8 13.25 579.8 63.24C636.3 119.7 636.3 211.3 579.8 267.7L467.5 380z"/>
    </symbol>
    <symbol id="linkedin" xmlns="http://www.w3.org/2000/svg" viewBox="0 0 448 512">
        <path fill="currentColor" d="M100.28 448H7.4V148.9h92.88zM53.79 108.1C24.09 108.1 0 83.5 0 53.8a53.79 53.79 0 0 1 107.58 0c0 29.7-24.1 54.3-53.79 54.3zM447.9 448h-92.68V302.4c0-34.7-.7-79.2-48.29-79.2-48.29 0-55.69 37.7-55.69 76.7V448h-92.78V148.9h89.08v40.8h1.3c12.4-23.5 42.69-48.3 87.88-48.3 94 0 111.28 61.9 111.28 142.3V448z"/>
    </symbol>
    <symbol id="location-dot" xmlns="http://www.w3.org/2000/svg" viewBox="0 0 384 512">
        <path fill="currentColor" d="M168.3 499.2C116.1 435 0 279.4 0 192C0 85.96 85.96 0 192 0C298 0 384 85.96 384 192C384 279.4 267 435 215.7 499.2C203.4 514.5 180.6 514.5 168.3 499.2H168.3zM192 256C227.3 256 256 227.3 256 192C256 156.7 227.3 128 192 128C156.7 128 128 156.7 128 192C128 227.3 156.7 256 192 256z"/>
    </symbol>
    <symbol id="magnifying-glass-plus" xmlns="http://www.w3.org/2000/svg" viewBox="0 0 512 512">
        <path fill="currentColor" d="M500.3 443.7l-119.7-119.7c27.22-40.41 40.65-90.9 33.46-144.7c-12.23-91.55-87.28-166-178.9-177.6c-136.2-17.24-250.7 97.28-233.4 233.4c11.6 91.64 86.07 166.7 177.6 178.9c53.81 7.191 104.3-6.235 144.7-33.46l119.7 119.7c15.62 15.62 40.95 15.62 56.57 .0003C515.9 484.7 515.9 459.3 500.3 443.7zM288 232H231.1V288c0 13.26-10.74 24-23.1 24C194.7 312 184 301.3 184 288V232H127.1C114.7 232 104 221.3 104 208s10.74-24 23.1-24H184V128c0-13.26 10.74-24 23.1-24S231.1 114.7 231.1 128v56h56C301.3 184 312 194.7 312 208S301.3 232 288 232z"/>
    </symbol>
    <symbol id="magnifying-glass" xmlns="http://www.w3.org/2000/svg" viewBox="0 0 512 512">
        <path fill="currentColor" d="M500.3 443.7l-119.7-119.7c27.22-40.41 40.65-90.9 33.46-144.7C401.8 87.79 326.8 13.32 235.2 1.723C99.01-15.51-15.51 99.01 1.724 235.2c11.6 91.64 86.08 166.7 177.6 178.9c53.8 7.189 104.3-6.236 144.7-33.46l119.7 119.7c15.62 15.62 40.95 15.62 56.57 0C515.9 484.7 515.9 459.3 500.3 443.7zM79.1 208c0-70.58 57.42-128 128-128s128 57.42 128 128c0 70.58-57.42 128-128 128S79.1 278.6 79.1 208z"/>
    </symbol>
    <symbol id="minus" xmlns="http://www.w3.org/2000/svg" viewBox="0 0 448 512">
        <path fill="currentColor" d="M400 288h-352c-17.69 0-32-14.32-32-32.01s14.31-31.99 32-31.99h352c17.69 0 32 14.3 32 31.99S417.7 288 400 288z"/>
    </symbol>
    <symbol id="palette" xmlns="http://www.w3.org/2000/svg" viewBox="0 0 512 512">
        <path fill="currentColor" d="M512 255.1C512 256.9 511.1 257.8 511.1 258.7C511.6 295.2 478.4 319.1 441.9 319.1H344C317.5 319.1 296 341.5 296 368C296 371.4 296.4 374.7 297 377.9C299.2 388.1 303.5 397.1 307.9 407.8C313.9 421.6 320 435.3 320 449.8C320 481.7 298.4 510.5 266.6 511.8C263.1 511.9 259.5 512 256 512C114.6 512 0 397.4 0 256C0 114.6 114.6 0 256 0C397.4 0 512 114.6 512 256V255.1zM96 255.1C78.33 255.1 64 270.3 64 287.1C64 305.7 78.33 319.1 96 319.1C113.7 319.1 128 305.7 128 287.1C128 270.3 113.7 255.1 96 255.1zM128 191.1C145.7 191.1 160 177.7 160 159.1C160 142.3 145.7 127.1 128 127.1C110.3 127.1 96 142.3 96 159.1C96 177.7 110.3 191.1 128 191.1zM256 63.1C238.3 63.1 224 78.33 224 95.1C224 113.7 238.3 127.1 256 127.1C273.7 127.1 288 113.7 288 95.1C288 78.33 273.7 63.1 256 63.1zM384 191.1C401.7 191.1 416 177.7 416 159.1C416 142.3 401.7 127.1 384 127.1C366.3 127.1 352 142.3 352 159.1C352 177.7 366.3 191.1 384 191.1z"/>
    </symbol>
    <symbol id="partner-shops" xmlns="http://www.w3.org/2000/svg" viewBox="0 0 48 54">
        <path fill="currentColor" d="M35.7,28.3l-13.2-5.4l3.6,13.8l3.2-2.8l4.5,4.9l3.1-2.9l-4.4-4.7L35.7,28.3z M35.7,29.8l-2,1.8l0.5,0.6 C34.8,31.4,35.3,30.6,35.7,29.8z M24,34.7c-0.8,0-1.5-0.1-2.2-0.2c-0.4-1.3-1.1-3.4-1.5-6c1,0.1,1.9,0.2,2.8,0.2l-0.3-1.1 c-0.9,0-1.8-0.1-2.7-0.2c0,0,0,0,0-0.1c-0.2-1.9-0.3-4-0.1-6.2c2.3-0.3,5-0.4,7.9-0.1C28,22,28,23.1,28,24.1l0.9,0.4 c0-1.1,0-2.3-0.1-3.5c1.8,0.2,3.6,0.6,5.5,1.2c0,0.2,0.1,0.5,0.1,0.7c0,0.4,0.1,0.7,0.1,1.1c0,0.8-0.1,1.5-0.2,2.2 c-0.1,0-0.3,0.1-0.5,0.1l2.8,1.1c0.3-1,0.4-2.1,0.4-3.2c0-0.5,0-1-0.1-1.6c-0.7-6.5-6.1-11.6-12.8-11.6c-7.1,0-12.9,5.8-12.9,12.9 c0,0.5,0,1.1,0.1,1.6c0.7,6.5,6.1,11.6,12.8,11.6c0.4,0,0.8,0,1.2-0.1l-0.6-2.5C24.4,34.7,24.2,34.7,24,34.7z M33.9,21 c-1.8-0.5-3.6-0.9-5.3-1.1c0-0.1,0-0.3-0.1-0.4c-0.2-1.8-0.6-3.5-1.3-5.3C30.5,15.3,32.9,17.8,33.9,21z M24,13.7 c0.8,0,1.5,0.1,2.2,0.2c0.8,1.9,1.3,3.8,1.6,5.7c0,0.1,0,0.1,0,0.2c-2.8-0.3-5.5-0.2-7.7,0.1c0.3-2,0.8-4,1.6-6 C22.4,13.7,23.2,13.7,24,13.7z M20.5,14.3c-0.7,1.9-1.1,3.8-1.3,5.7c-2.2,0.3-4,0.7-5.1,1C15.1,17.9,17.5,15.4,20.5,14.3z M13.6,25.4c0-0.4-0.1-0.7-0.1-1.1c0-0.7,0.1-1.4,0.2-2.1c0.9-0.3,2.8-0.8,5.3-1.1c-0.1,2.1,0,4.2,0.2,6.1 c-1.8-0.3-3.7-0.7-5.6-1.4C13.7,25.7,13.6,25.5,13.6,25.4z M14,27.1c1.8,0.6,3.7,1,5.4,1.3c0.4,2.4,0.9,4.4,1.3,5.8 C17.5,33.1,14.9,30.4,14,27.1z M28,36.6c0.8-0.3,1.5-0.6,2.3-1L29.7,35L28,36.6z"/>
    </symbol>
    <symbol id="pen-to-square" xmlns="http://www.w3.org/2000/svg" viewBox="0 0 512 512">
        <path fill="currentColor" d="M490.3 40.4C512.2 62.27 512.2 97.73 490.3 119.6L460.3 149.7L362.3 51.72L392.4 21.66C414.3-.2135 449.7-.2135 471.6 21.66L490.3 40.4zM172.4 241.7L339.7 74.34L437.7 172.3L270.3 339.6C264.2 345.8 256.7 350.4 248.4 353.2L159.6 382.8C150.1 385.6 141.5 383.4 135 376.1C128.6 370.5 126.4 361 129.2 352.4L158.8 263.6C161.6 255.3 166.2 247.8 172.4 241.7V241.7zM192 63.1C209.7 63.1 224 78.33 224 95.1C224 113.7 209.7 127.1 192 127.1H96C78.33 127.1 64 142.3 64 159.1V416C64 433.7 78.33 448 96 448H352C369.7 448 384 433.7 384 416V319.1C384 302.3 398.3 287.1 416 287.1C433.7 287.1 448 302.3 448 319.1V416C448 469 405 512 352 512H96C42.98 512 0 469 0 416V159.1C0 106.1 42.98 63.1 96 63.1H192z"/>
    </symbol>
    <symbol id="phone" xmlns="http://www.w3.org/2000/svg" viewBox="0 0 512 512">
        <path fill="currentColor" d="M511.2 387l-23.25 100.8c-3.266 14.25-15.79 24.22-30.46 24.22C205.2 512 0 306.8 0 54.5c0-14.66 9.969-27.2 24.22-30.45l100.8-23.25C139.7-2.602 154.7 5.018 160.8 18.92l46.52 108.5c5.438 12.78 1.77 27.67-8.98 36.45L144.5 207.1c33.98 69.22 90.26 125.5 159.5 159.5l44.08-53.8c8.688-10.78 23.69-14.51 36.47-8.975l108.5 46.51C506.1 357.2 514.6 372.4 511.2 387z"/>
    </symbol>
    <symbol id="pinterest" xmlns="http://www.w3.org/2000/svg" viewBox="0 0 384 512">
        <path fill="currentColor" d="M204 6.5C101.4 6.5 0 74.9 0 185.6 0 256 39.6 296 63.6 296c9.9 0 15.6-27.6 15.6-35.4 0-9.3-23.7-29.1-23.7-67.8 0-80.4 61.2-137.4 140.4-137.4 68.1 0 118.5 38.7 118.5 109.8 0 53.1-21.3 152.7-90.3 152.7-24.9 0-46.2-18-46.2-43.8 0-37.8 26.4-74.4 26.4-113.4 0-66.2-93.9-54.2-93.9 25.8 0 16.8 2.1 35.4 9.6 50.7-13.8 59.4-42 147.9-42 209.1 0 18.9 2.7 37.5 4.5 56.4 3.4 3.8 1.7 3.4 6.9 1.5 50.4-69 48.6-82.5 71.4-172.8 12.3 23.4 44.1 36 69.3 36 106.2 0 153.9-103.5 153.9-196.8C384 71.3 298.2 6.5 204 6.5z"/>
    </symbol>
    <symbol id="plus" xmlns="http://www.w3.org/2000/svg" viewBox="0 0 448 512">
        <path fill="currentColor" d="M432 256c0 17.69-14.33 32.01-32 32.01H256v144c0 17.69-14.33 31.99-32 31.99s-32-14.3-32-31.99v-144H48c-17.67 0-32-14.32-32-32.01s14.33-31.99 32-31.99H192v-144c0-17.69 14.33-32.01 32-32.01s32 14.32 32 32.01v144h144C417.7 224 432 238.3 432 256z"/>
    </symbol>
    <symbol id="print" xmlns="http://www.w3.org/2000/svg" viewBox="0 0 512 512">
        <path fill="currentColor" d="M448 192H64C28.65 192 0 220.7 0 256v96c0 17.67 14.33 32 32 32h32v96c0 17.67 14.33 32 32 32h320c17.67 0 32-14.33 32-32v-96h32c17.67 0 32-14.33 32-32V256C512 220.7 483.3 192 448 192zM384 448H128v-96h256V448zM432 296c-13.25 0-24-10.75-24-24c0-13.27 10.75-24 24-24s24 10.73 24 24C456 285.3 445.3 296 432 296zM128 64h229.5L384 90.51V160h64V77.25c0-8.484-3.375-16.62-9.375-22.62l-45.25-45.25C387.4 3.375 379.2 0 370.8 0H96C78.34 0 64 14.33 64 32v128h64V64z"/>
    </symbol>
    <symbol id="projects-progress" xmlns="http://www.w3.org/2000/svg" viewBox="0 0 48 54">
        <path fill="currentColor" d="M17.2,20.6c0.5,0,1-0.4,1-1v-2.9c0-0.5-0.4-1-1-1c-0.5,0-1,0.4-1,1v2.9C16.2,20.1,16.6,20.6,17.2,20.6z M23.3,20.5c0.5,0,1-0.4,1-1v-2.9c0-0.5-0.4-1-1-1c-0.5,0-1,0.4-1,1v2.9C22.3,20.1,22.7,20.5,23.3,20.5z M29.4,20.4 c0.5,0,1-0.4,1-1v-2.9c0-0.5-0.4-1-1-1c-0.5,0-1,0.4-1,1v2.9C28.4,20,28.8,20.4,29.4,20.4z M32,17.9h-1.2v1.6 c0,0.8-0.6,1.4-1.4,1.4c-0.8,0-1.4-0.6-1.4-1.4v-1.6h-3.3v1.7c0,0.8-0.6,1.4-1.4,1.4c-0.8,0-1.4-0.6-1.4-1.4v-1.7h-3.3v1.8 c0,0.8-0.6,1.4-1.4,1.4c-0.8,0-1.4-0.6-1.4-1.4v-1.8h-1.2c-1.8,0-3.3,1.5-3.3,3.3v15.2c0,1.8,1.5,3.3,3.3,3.3H32 c1.8,0,3.3-1.5,3.3-3.3V21.1C35.3,19.3,33.8,17.9,32,17.9z M34.5,35.9c0,1.7-1.4,3.1-3.1,3.1H15.1c-1.7,0-3.1-1.4-3.1-3.1v-9.1 h22.5V35.9z"/>
    </symbol>
    <symbol id="right-left" xmlns="http://www.w3.org/2000/svg" viewBox="0 0 512 512">
        <path fill="currentColor" d="M32 160h319.9l.0791 72c0 9.547 5.652 18.19 14.41 22c8.754 3.812 18.93 2.078 25.93-4.406l112-104c10.24-9.5 10.24-25.69 0-35.19l-112-104c-6.992-6.484-17.17-8.217-25.93-4.408c-8.758 3.816-14.41 12.46-14.41 22L351.9 96H32C14.31 96 0 110.3 0 127.1S14.31 160 32 160zM480 352H160.1L160 279.1c0-9.547-5.652-18.19-14.41-22C136.9 254.2 126.7 255.9 119.7 262.4l-112 104c-10.24 9.5-10.24 25.69 0 35.19l112 104c6.992 6.484 17.17 8.219 25.93 4.406C154.4 506.2 160 497.5 160 488L160.1 416H480c17.69 0 32-14.31 32-32S497.7 352 480 352z"/>
    </symbol>
    <symbol id="rss" xmlns="http://www.w3.org/2000/svg" viewBox="0 0 448 512">
        <path fill="currentColor" d="M25.57 176.1C12.41 175.4 .9117 185.2 .0523 198.4s9.173 24.65 22.39 25.5c120.1 7.875 225.7 112.7 233.6 233.6C256.9 470.3 267.4 480 279.1 480c.5313 0 1.062-.0313 1.594-.0625c13.22-.8438 23.25-12.28 22.39-25.5C294.6 310.3 169.7 185.4 25.57 176.1zM32 32C14.33 32 0 46.31 0 64s14.33 32 32 32c194.1 0 352 157.9 352 352c0 17.69 14.33 32 32 32s32-14.31 32-32C448 218.6 261.4 32 32 32zM63.1 351.9C28.63 351.9 0 380.6 0 416s28.63 64 63.1 64s64.08-28.62 64.08-64S99.37 351.9 63.1 351.9z"/>
    </symbol>
    <symbol id="sort-down" xmlns="http://www.w3.org/2000/svg" viewBox="0 0 320 512">
        <path fill="currentColor" d="M311.9 335.1l-132.4 136.8C174.1 477.3 167.1 480 160 480c-7.055 0-14.12-2.702-19.47-8.109l-132.4-136.8C-9.229 317.8 3.055 288 27.66 288h264.7C316.9 288 329.2 317.8 311.9 335.1z"/>
    </symbol>
    <symbol id="sort-up" xmlns="http://www.w3.org/2000/svg" viewBox="0 0 320 512">
        <path fill="currentColor" d="M27.66 224h264.7c24.6 0 36.89-29.78 19.54-47.12l-132.3-136.8c-5.406-5.406-12.47-8.107-19.53-8.107c-7.055 0-14.09 2.701-19.45 8.107L8.119 176.9C-9.229 194.2 3.055 224 27.66 224z"/>
    </symbol>
    <symbol id="sort" xmlns="http://www.w3.org/2000/svg" viewBox="0 0 320 512">
        <path fill="currentColor" d="M27.66 224h264.7c24.6 0 36.89-29.78 19.54-47.12l-132.3-136.8c-5.406-5.406-12.47-8.107-19.53-8.107c-7.055 0-14.09 2.701-19.45 8.107L8.119 176.9C-9.229 194.2 3.055 224 27.66 224zM292.3 288H27.66c-24.6 0-36.89 29.77-19.54 47.12l132.5 136.8C145.9 477.3 152.1 480 160 480c7.053 0 14.12-2.703 19.53-8.109l132.3-136.8C329.2 317.8 316.9 288 292.3 288z"/>
    </symbol>
    <symbol id="star-half-stroke" xmlns="http://www.w3.org/2000/svg" viewBox="0 0 576 512">
        <path fill="currentColor" d="M463.1 474.7C465.1 486.7 460.2 498.9 450.2 506C440.3 513.1 427.2 514 416.5 508.3L288.1 439.8L159.8 508.3C149 514 135.9 513.1 126 506C116.1 498.9 111.1 486.7 113.2 474.7L137.8 328.1L33.58 225.9C24.97 217.3 21.91 204.7 25.69 193.1C29.46 181.6 39.43 173.2 51.42 171.5L195 150.3L259.4 17.97C264.7 6.954 275.9-.0391 288.1-.0391C300.4-.0391 311.6 6.954 316.9 17.97L381.2 150.3L524.9 171.5C536.8 173.2 546.8 181.6 550.6 193.1C554.4 204.7 551.3 217.3 542.7 225.9L438.5 328.1L463.1 474.7zM288 376.4L288.1 376.3L399.7 435.9L378.4 309.6L469.2 219.8L343.8 201.4L288.1 86.85L288 87.14V376.4z"/>
    </symbol>
    <symbol id="star-half" xmlns="http://www.w3.org/2000/svg" viewBox="0 0 576 512">
        <path fill="currentColor" d="M288 439.8L159.8 508.3C149 514 135.9 513.1 126 506C116.1 498.9 111.1 486.7 113.2 474.7L137.8 328.1L33.58 225.9C24.97 217.3 21.91 204.7 25.69 193.1C29.46 181.6 39.43 173.2 51.42 171.5L195 150.3L259.4 17.97C264.7 6.995 275.8 .0131 287.1-.0391L288 439.8zM433.2 512C432.1 512.1 431 512.1 429.9 512H433.2z"/>
    </symbol>
    <symbol id="star-o" xmlns="http://www.w3.org/2000/svg" viewBox="0 0 576 512">
        <path fill="currentColor" d="M287.9 0C297.1 0 305.5 5.25 309.5 13.52L378.1 154.8L531.4 177.5C540.4 178.8 547.8 185.1 550.7 193.7C553.5 202.4 551.2 211.9 544.8 218.2L433.6 328.4L459.9 483.9C461.4 492.9 457.7 502.1 450.2 507.4C442.8 512.7 432.1 513.4 424.9 509.1L287.9 435.9L150.1 509.1C142.9 513.4 133.1 512.7 125.6 507.4C118.2 502.1 114.5 492.9 115.1 483.9L142.2 328.4L31.11 218.2C24.65 211.9 22.36 202.4 25.2 193.7C28.03 185.1 35.5 178.8 44.49 177.5L197.7 154.8L266.3 13.52C270.4 5.249 278.7 0 287.9 0L287.9 0zM287.9 78.95L235.4 187.2C231.9 194.3 225.1 199.3 217.3 200.5L98.98 217.9L184.9 303C190.4 308.5 192.9 316.4 191.6 324.1L171.4 443.7L276.6 387.5C283.7 383.7 292.2 383.7 299.2 387.5L404.4 443.7L384.2 324.1C382.9 316.4 385.5 308.5 391 303L476.9 217.9L358.6 200.5C350.7 199.3 343.9 194.3 340.5 187.2L287.9 78.95z"/>
    </symbol>
    <symbol id="star" xmlns="http://www.w3.org/2000/svg" viewBox="0 0 576 512">
        <path fill="currentColor" d="M381.2 150.3L524.9 171.5C536.8 173.2 546.8 181.6 550.6 193.1C554.4 204.7 551.3 217.3 542.7 225.9L438.5 328.1L463.1 474.7C465.1 486.7 460.2 498.9 450.2 506C440.3 513.1 427.2 514 416.5 508.3L288.1 439.8L159.8 508.3C149 514 135.9 513.1 126 506C116.1 498.9 111.1 486.7 113.2 474.7L137.8 328.1L33.58 225.9C24.97 217.3 21.91 204.7 25.69 193.1C29.46 181.6 39.43 173.2 51.42 171.5L195 150.3L259.4 17.97C264.7 6.954 275.9-.0391 288.1-.0391C300.4-.0391 311.6 6.954 316.9 17.97L381.2 150.3z"/>
    </symbol>
    <symbol id="table-cells" xmlns="http://www.w3.org/2000/svg" viewBox="0 0 512 512">
        <path fill="currentColor" d="M448 32C483.3 32 512 60.65 512 96V416C512 451.3 483.3 480 448 480H64C28.65 480 0 451.3 0 416V96C0 60.65 28.65 32 64 32H448zM152 96H64V160H152V96zM208 160H296V96H208V160zM448 96H360V160H448V96zM64 288H152V224H64V288zM296 224H208V288H296V224zM360 288H448V224H360V288zM152 352H64V416H152V352zM208 416H296V352H208V416zM448 352H360V416H448V352z"/>
    </symbol>
    <symbol id="table-list" xmlns="http://www.w3.org/2000/svg" viewBox="0 0 512 512">
        <path fill="currentColor" d="M0 96C0 60.65 28.65 32 64 32H448C483.3 32 512 60.65 512 96V416C512 451.3 483.3 480 448 480H64C28.65 480 0 451.3 0 416V96zM64 160H128V96H64V160zM448 96H192V160H448V96zM64 288H128V224H64V288zM448 224H192V288H448V224zM64 416H128V352H64V416zM448 352H192V416H448V352z"/>
    </symbol>
    <symbol id="tags" xmlns="http://www.w3.org/2000/svg" viewBox="0 0 512 512">
        <path fill="currentColor" d="M472.8 168.4C525.1 221.4 525.1 306.6 472.8 359.6L360.8 472.9C351.5 482.3 336.3 482.4 326.9 473.1C317.4 463.8 317.4 448.6 326.7 439.1L438.6 325.9C472.5 291.6 472.5 236.4 438.6 202.1L310.9 72.87C301.5 63.44 301.6 48.25 311.1 38.93C320.5 29.61 335.7 29.7 344.1 39.13L472.8 168.4zM.0003 229.5V80C.0003 53.49 21.49 32 48 32H197.5C214.5 32 230.7 38.74 242.7 50.75L410.7 218.7C435.7 243.7 435.7 284.3 410.7 309.3L277.3 442.7C252.3 467.7 211.7 467.7 186.7 442.7L18.75 274.7C6.743 262.7 0 246.5 0 229.5L.0003 229.5zM112 112C94.33 112 80 126.3 80 144C80 161.7 94.33 176 112 176C129.7 176 144 161.7 144 144C144 126.3 129.7 112 112 112z"/>
    </symbol>
    <symbol id="telegram" xmlns="http://www.w3.org/2000/svg" viewBox="0 0 496 512">
        <path fill="currentColor" d="M248,8C111.033,8,0,119.033,0,256S111.033,504,248,504,496,392.967,496,256,384.967,8,248,8ZM362.952,176.66c-3.732,39.215-19.881,134.378-28.1,178.3-3.476,18.584-10.322,24.816-16.948,25.425-14.4,1.326-25.338-9.517-39.287-18.661-21.827-14.308-34.158-23.215-55.346-37.177-24.485-16.135-8.612-25,5.342-39.5,3.652-3.793,67.107-61.51,68.335-66.746.153-.655.3-3.1-1.154-4.384s-3.59-.849-5.135-.5q-3.283.746-104.608,69.142-14.845,10.194-26.894,9.934c-8.855-.191-25.888-5.006-38.551-9.123-15.531-5.048-27.875-7.717-26.8-16.291q.84-6.7,18.45-13.7,108.446-47.248,144.628-62.3c68.872-28.647,83.183-33.623,92.511-33.789,2.052-.034,6.639.474,9.61,2.885a10.452,10.452,0,0,1,3.53,6.716A43.765,43.765,0,0,1,362.952,176.66Z"/>
    </symbol>
    <symbol id="tiktok" xmlns="http://www.w3.org/2000/svg" viewBox="0 0 448 512">
        <path fill="currentColor" d="M448,209.91a210.06,210.06,0,0,1-122.77-39.25V349.38A162.55,162.55,0,1,1,185,188.31V278.2a74.62,74.62,0,1,0,52.23,71.18V0l88,0a121.18,121.18,0,0,0,1.86,22.17h0A122.18,122.18,0,0,0,381,102.39a121.43,121.43,0,0,0,67,20.14Z"/>
    </symbol>
    <symbol id="truck" xmlns="http://www.w3.org/2000/svg" viewBox="0 0 640 512">
        <path fill="currentColor" d="M368 0C394.5 0 416 21.49 416 48V96H466.7C483.7 96 499.1 102.7 512 114.7L589.3 192C601.3 204 608 220.3 608 237.3V352C625.7 352 640 366.3 640 384C640 401.7 625.7 416 608 416H576C576 469 533 512 480 512C426.1 512 384 469 384 416H256C256 469 213 512 160 512C106.1 512 64 469 64 416H48C21.49 416 0 394.5 0 368V48C0 21.49 21.49 0 48 0H368zM416 160V256H544V237.3L466.7 160H416zM160 368C133.5 368 112 389.5 112 416C112 442.5 133.5 464 160 464C186.5 464 208 442.5 208 416C208 389.5 186.5 368 160 368zM480 464C506.5 464 528 442.5 528 416C528 389.5 506.5 368 480 368C453.5 368 432 389.5 432 416C432 442.5 453.5 464 480 464z"/>
    </symbol>
    <symbol id="twitter" xmlns="http://www.w3.org/2000/svg" viewBox="0 0 512 512">
        <path fill="currentColor" d="M459.37 151.716c.325 4.548.325 9.097.325 13.645 0 138.72-105.583 298.558-298.558 298.558-59.452 0-114.68-17.219-161.137-47.106 8.447.974 16.568 1.299 25.34 1.299 49.055 0 94.213-16.568 130.274-44.832-46.132-.975-84.792-31.188-98.112-72.772 6.498.974 12.995 1.624 19.818 1.624 9.421 0 18.843-1.3 27.614-3.573-48.081-9.747-84.143-51.98-84.143-102.985v-1.299c13.969 7.797 30.214 12.67 47.431 13.319-28.264-18.843-46.781-51.005-46.781-87.391 0-19.492 5.197-37.36 14.294-52.954 51.655 63.675 129.3 105.258 216.365 109.807-1.624-7.797-2.599-15.918-2.599-24.04 0-57.828 46.782-104.934 104.934-104.934 30.213 0 57.502 12.67 76.67 33.137 23.715-4.548 46.456-13.32 66.599-25.34-7.798 24.366-24.366 44.833-46.132 57.827 21.117-2.273 41.584-8.122 60.426-16.243-14.292 20.791-32.161 39.308-52.628 54.253z"/>
    </symbol>
    <symbol id="user-o" xmlns="http://www.w3.org/2000/svg" viewBox="0 0 448 512">
        <path fill="currentColor" d="M272 304h-96C78.8 304 0 382.8 0 480c0 17.67 14.33 32 32 32h384c17.67 0 32-14.33 32-32C448 382.8 369.2 304 272 304zM48.99 464C56.89 400.9 110.8 352 176 352h96c65.16 0 119.1 48.95 127 112H48.99zM224 256c70.69 0 128-57.31 128-128c0-70.69-57.31-128-128-128S96 57.31 96 128C96 198.7 153.3 256 224 256zM224 48c44.11 0 80 35.89 80 80c0 44.11-35.89 80-80 80S144 172.1 144 128C144 83.89 179.9 48 224 48z"/>
    </symbol>
    <symbol id="user" xmlns="http://www.w3.org/2000/svg" viewBox="0 0 448 512">
        <path fill="currentColor" d="M224 256c70.7 0 128-57.31 128-128s-57.3-128-128-128C153.3 0 96 57.31 96 128S153.3 256 224 256zM274.7 304H173.3C77.61 304 0 381.6 0 477.3c0 19.14 15.52 34.67 34.66 34.67h378.7C432.5 512 448 496.5 448 477.3C448 381.6 370.4 304 274.7 304z"/>
    </symbol>
    <symbol id="vimeo" xmlns="http://www.w3.org/2000/svg" viewBox="0 0 448 512">
        <path fill="currentColor" d="M447.8 153.6c-2 43.6-32.4 103.3-91.4 179.1-60.9 79.2-112.4 118.8-154.6 118.8-26.1 0-48.2-24.1-66.3-72.3C100.3 250 85.3 174.3 56.2 174.3c-3.4 0-15.1 7.1-35.2 21.1L0 168.2c51.6-45.3 100.9-95.7 131.8-98.5 34.9-3.4 56.3 20.5 64.4 71.5 28.7 181.5 41.4 208.9 93.6 126.7 18.7-29.6 28.8-52.1 30.2-67.6 4.8-45.9-35.8-42.8-63.3-31 22-72.1 64.1-107.1 126.2-105.1 45.8 1.2 67.5 31.1 64.9 89.4z"/>
    </symbol>
    <symbol id="wholesale" xmlns="http://www.w3.org/2000/svg" viewBox="0 0 48 54">
        <path fill="currentColor" d="M20.7,22.7h7.4c0.2,0,0.4-0.2,0.4-0.4v-5.6c0-0.2-0.2-0.4-0.4-0.4h-7.4c-0.2,0-0.4,0.2-0.4,0.4v5.6 C20.3,22.5,20.5,22.7,20.7,22.7z M38.7,31.4h-7.4c-0.2,0-0.4,0.2-0.4,0.4v5.6c0,0.2,0.2,0.4,0.4,0.4h7.4c0.2,0,0.4-0.2,0.4-0.4 v-5.6C39.2,31.6,39,31.4,38.7,31.4z M28.2,31.4h-7.4c-0.2,0-0.4,0.2-0.4,0.4v5.6c0,0.2,0.2,0.4,0.4,0.4h7.4c0.2,0,0.4-0.2,0.4-0.4 v-5.6C28.6,31.6,28.4,31.4,28.2,31.4z M17.6,31.4h-7.4c-0.2,0-0.4,0.2-0.4,0.4v5.6c0,0.2,0.2,0.4,0.4,0.4h7.4 c0.2,0,0.4-0.2,0.4-0.4v-5.6C18,31.6,17.8,31.4,17.6,31.4z M13.4,30.6h0.9c0.2,0,0.4-0.2,0.4-0.4v-2.3h8.9v2.3 c0,0.2,0.2,0.4,0.4,0.4h0.9c0.2,0,0.4-0.2,0.4-0.4v-2.3h8.9v2.4c0,0.2,0.2,0.4,0.4,0.4h0.9c0.2,0,0.4-0.2,0.4-0.4v-3.5 c0,0,0,0,0,0v-0.1c0-0.2-0.2-0.4-0.4-0.4H25.3v-2.3c0-0.2-0.2-0.4-0.4-0.4H24c-0.2,0-0.4,0.2-0.4,0.4v2.3H13.4 c-0.2,0-0.4,0.2-0.4,0.4v0.2c0,0,0,0,0,0.1v3.4C13,30.4,13.1,30.6,13.4,30.6z"/>
    </symbol>
    <symbol id="xmark" xmlns="http://www.w3.org/2000/svg" viewBox="0 0 320 512">
        <path fill="currentColor" d="M310.6 361.4c12.5 12.5 12.5 32.75 0 45.25C304.4 412.9 296.2 416 288 416s-16.38-3.125-22.62-9.375L160 301.3L54.63 406.6C48.38 412.9 40.19 416 32 416S15.63 412.9 9.375 406.6c-12.5-12.5-12.5-32.75 0-45.25l105.4-105.4L9.375 150.6c-12.5-12.5-12.5-32.75 0-45.25s32.75-12.5 45.25 0L160 210.8l105.4-105.4c12.5-12.5 32.75-12.5 45.25 0s12.5 32.75 0 45.25l-105.4 105.4L310.6 361.4z"/>
    </symbol>
    <symbol id="youtube" xmlns="http://www.w3.org/2000/svg" viewBox="0 0 576 512">
        <path fill="currentColor" d="M549.655 124.083c-6.281-23.65-24.787-42.276-48.284-48.597C458.781 64 288 64 288 64S117.22 64 74.629 75.486c-23.497 6.322-42.003 24.947-48.284 48.597-11.412 42.867-11.412 132.305-11.412 132.305s0 89.438 11.412 132.305c6.281 23.65 24.787 41.5 48.284 47.821C117.22 448 288 448 288 448s170.78 0 213.371-11.486c23.497-6.321 42.003-24.171 48.284-47.821 11.412-42.867 11.412-132.305 11.412-132.305s0-89.438-11.412-132.305zm-317.51 213.508V175.185l142.739 81.205-142.739 81.201z"/>
    </symbol>
</svg>